<svg width="48" height="47" viewBox="0 0 48 47" fill="none" xmlns="http://www.w3.org/2000/svg">
<g id="HP_New_Logo_2D 2" clip-path="url(#clip0_477_2652)">
<path id="Vector" d="M23.9547 46.9076C23.722 46.9076 23.4903 46.9033 23.2591 46.8966L28.0428 33.7494H34.6263C35.7818 33.7494 37.0503 32.8611 37.4455 31.7758L42.6356 17.5202C43.4846 15.1863 42.1478 13.2768 39.6643 13.2768H30.531L22.8677 34.3348H22.8648L18.5204 46.272C8.21337 43.8216 0.546875 34.5564 0.546875 23.4997C0.546875 12.7618 7.7774 3.71362 17.6349 0.955936L13.1522 13.2768H13.1509L5.69866 33.7494L10.6596 33.7499L16.9972 16.3532H20.7255L14.3879 33.7499L19.347 33.7507L25.253 17.5202C26.1026 15.1863 24.7656 13.2768 22.2844 13.2768H18.1142L22.9027 0.116397C23.2517 0.1009 23.6021 0.0917969 23.9547 0.0917969C36.8825 0.0917969 47.3625 10.5718 47.3625 23.4997C47.3625 36.4274 36.8825 46.9076 23.9547 46.9076ZM38.1177 16.3407H34.3904L29.1705 30.6626H32.898L38.1177 16.3407Z" fill="#01579B"/>
</g>
<defs>
<clipPath id="clip0_477_2652">
<rect width="47" height="47" fill="white" transform="translate(0.453125)"/>
</clipPath>
</defs>
</svg>
